<?xml version="1.0" encoding="utf-8"?>
<!-- Generator: Adobe Illustrator 16.0.4, SVG Export Plug-In . SVG Version: 6.00 Build 0)  -->
<!DOCTYPE svg PUBLIC "-//W3C//DTD SVG 1.0//EN" "http://www.w3.org/TR/2001/REC-SVG-20010904/DTD/svg10.dtd">
<svg version="1.0" id="Layer_1" xmlns="http://www.w3.org/2000/svg" xmlns:xlink="http://www.w3.org/1999/xlink" x="0px" y="0px"
	 width="100px" height="160px" viewBox="0 0 100 160" enable-background="new 0 0 100 160" xml:space="preserve">
<path fill="none" d="M97.646,100.928c-1.574-5.072-3.883-9.436-6.924-13.088c-3.046-3.652-6.773-6.492-11.188-8.522
	c-4.415-2.028-9.462-3.043-15.143-3.043c-4.567,0-8.826,0.609-12.328,1.826c-3.5,1.217-6.063,2.385-8.064,3.5V39.14v0.007v-0.144H14
	v-6.891c0-6.088,1.307-10.931,3.945-14.534c2.638-3.6,7.248-5.404,13.844-5.404c3.246,0,5.982,0.281,8.214,0.837
	c2.23,0.559,3.955,1.141,5.172,1.75l2.588-12.176c-1.217-0.506-3.325-1.065-6.317-1.673C38.456,0.305,34.878,0,30.72,0
	C20.066,0,12.339,2.766,7.37,8.294C2.397,13.826,0,21.664,0,31.808v86.199h14.001V51.003h16.001v103.952
	c3,0.913,7.557,1.826,12.63,2.738c5.072,0.914,10.979,1.371,17.577,1.371c6.086,0,11.604-0.965,16.475-2.892
	c4.868-1.927,9.047-4.666,12.498-8.219c3.447-3.552,6.119-7.89,8-13.015c1.875-5.121,2.818-10.881,2.818-17.271
	C99.999,111.58,99.219,106.002,97.646,100.928z M78.395,139.051c-4.563,5.022-10.653,7.534-18.264,7.534
	c-3.855,0-7.303-0.177-9.891-0.533c-2.586-0.354-4.237-0.735-6.238-1.143V94.84c2-1.42,4.437-2.789,7.686-4.107
	c3.244-1.317,6.908-1.979,10.766-1.979c4.059,0,7.591,0.737,10.48,2.207c2.892,1.472,5.28,3.5,7.105,6.088
	c1.824,2.587,3.156,5.656,3.97,9.207c0.812,3.554,1.228,7.356,1.228,11.414C85.236,126.902,82.96,134.029,78.395,139.051z"/>
</svg>
