<?xml version="1.0" encoding="utf-8"?>
<!-- Generator: Adobe Illustrator 16.0.4, SVG Export Plug-In . SVG Version: 6.00 Build 0)  -->
<!DOCTYPE svg PUBLIC "-//W3C//DTD SVG 1.1//EN" "http://www.w3.org/Graphics/SVG/1.1/DTD/svg11.dtd">
<svg version="1.1" id="Layer_1" xmlns="http://www.w3.org/2000/svg" xmlns:xlink="http://www.w3.org/1999/xlink" x="0px" y="0px"
	 width="52.61px" height="52.61px" viewBox="0 0 52.61 52.61" enable-background="new 0 0 52.61 52.61" xml:space="preserve">
<circle fill="none" stroke="#000000" stroke-width="3.3" stroke-miterlimit="10" cx="26.3" cy="26.3" r="24.65"/>
<g>
	<path d="M21.76,7.5c0.98,0,1.83,0.07,2.54,0.22c0.71,0.14,1.21,0.28,1.49,0.4l-0.61,2.88c-0.29-0.14-0.7-0.28-1.22-0.41
		c-0.53-0.13-1.18-0.2-1.94-0.2c-1.56,0-2.65,0.43-3.28,1.28c-0.62,0.85-0.94,2-0.94,3.44v1.62H25v2.81h-7.2v15.91h-3.35V15.02
		c0-2.4,0.59-4.25,1.76-5.56C17.39,8.15,19.24,7.5,21.76,7.5z"/>
</g>
<g>
	<path d="M25,26.77c0.41-0.26,1.03-0.54,1.85-0.83c0.83-0.29,1.78-0.43,2.86-0.43c1.34,0,2.54,0.24,3.58,0.72
		c1.04,0.48,1.93,1.15,2.65,2.02c0.72,0.86,1.27,1.9,1.64,3.1c0.37,1.2,0.56,2.52,0.56,3.96c0,1.51-0.22,2.87-0.67,4.09
		c-0.44,1.21-1.07,2.24-1.89,3.08c-0.82,0.84-1.8,1.49-2.95,1.94c-1.15,0.46-2.45,0.68-3.89,0.68c-1.56,0-2.94-0.11-4.14-0.32
		c-1.2-0.22-2.18-0.43-2.95-0.65V17.3L25,16.72V26.77z M25,41.74c0.34,0.1,0.81,0.19,1.42,0.27c0.61,0.08,1.37,0.13,2.29,0.13
		c1.8,0,3.24-0.59,4.32-1.78c1.08-1.19,1.62-2.87,1.62-5.06c0-0.96-0.1-1.86-0.29-2.7c-0.19-0.84-0.5-1.57-0.94-2.18
		c-0.43-0.61-0.99-1.09-1.67-1.44c-0.68-0.35-1.51-0.52-2.47-0.52c-0.91,0-1.75,0.16-2.52,0.47c-0.77,0.31-1.36,0.64-1.76,0.97
		V41.74z"/>
</g>
</svg>
