<?xml version="1.0" encoding="utf-8"?>
<!-- Generator: Adobe Illustrator 16.0.4, SVG Export Plug-In . SVG Version: 6.00 Build 0)  -->
<!DOCTYPE svg PUBLIC "-//W3C//DTD SVG 1.1//EN" "http://www.w3.org/Graphics/SVG/1.1/DTD/svg11.dtd">
<svg version="1.1" id="Layer_1" xmlns="http://www.w3.org/2000/svg" xmlns:xlink="http://www.w3.org/1999/xlink" x="0px" y="0px"
	 width="100px" height="160px" viewBox="0 0 100 160" enable-background="new 0 0 100 160" xml:space="preserve">
<path fill="none" d="M98.646,101.928c-1.574-5.072-3.883-9.436-6.924-13.088c-3.045-3.652-6.773-6.492-11.187-8.522
	c-4.415-2.028-9.462-3.043-15.142-3.043c-4.568,0-8.827,0.609-12.328,1.826c-3.5,1.217-6.064,2.386-8.065,3.501V40.14v0.007v-0.144
	h-30v-6.891c0-6.088,1.307-10.931,3.945-14.534c2.638-3.6,7.248-5.404,13.844-5.404c3.246,0,5.982,0.281,8.214,0.837
	c2.23,0.559,3.955,1.141,5.172,1.75l2.588-12.176c-1.217-0.506-3.325-1.065-6.317-1.673C39.456,1.305,35.878,1,31.72,1
	C21.066,1,13.339,3.766,8.37,9.294C3.397,14.826,1,22.664,1,32.808v86.199h14.001V52.003h16.001v103.952
	c3,0.913,7.557,1.826,12.63,2.739c5.072,0.913,10.979,1.37,17.577,1.37c6.086,0,11.604-0.965,16.474-2.891
	c4.869-1.927,9.048-4.666,12.499-8.219c3.447-3.551,6.119-7.889,8-13.014c1.875-5.121,2.818-10.881,2.818-17.272
	C100.999,112.58,100.219,107.002,98.646,101.928z M79.395,140.051c-4.564,5.022-10.654,7.534-18.264,7.534
	c-3.855,0-7.303-0.177-9.891-0.533c-2.586-0.354-4.237-0.735-6.238-1.143V95.84c2-1.42,4.437-2.789,7.685-4.108
	c3.245-1.317,6.908-1.979,10.766-1.979c4.058,0,7.591,0.737,10.481,2.207c2.891,1.471,5.28,3.5,7.105,6.088
	c1.825,2.587,3.157,5.656,3.97,9.207c0.812,3.553,1.227,7.357,1.227,11.414C86.236,127.902,83.96,135.029,79.395,140.051z"/>
</svg>
